# xmcd CD database file
#
# Track frame offsets:
#	150
#	20463
#	44306
#	59828
#	84529
#	102655
#	139178
#	161802
#	188036
#	204354
#	226003
#
# Disc length: 3234 seconds
#
# Revision: 0
# Processed by: cddbd v1.4PL0 Copyright (c) Steve Scherf et al.
# Submitted via: CDex 1.50Beta7
#
DISCID=950ca00b
DTITLE=Mrs. Columbo - Mrs. Columbo
DYEAR=1900
DGENRE=Jazz
TTITLE0=She´s a woman
TTITLE1=What a difference a day made
TTITLE2=We can work it out
TTITLE3=Limbo (sitting here in)
TTITLE4=Why did you do it?
TTITLE5=Spring can really hang you up the most
TTITLE6=Hard to handle
TTITLE7=Everytime we say goodbye
TTITLE8=Blue mood
TTITLE9=The world is falling down
TTITLE10=Why di you do it? (Radio Edit)
EXTD=
EXTT0=
EXTT1=
EXTT2=
EXTT3=
EXTT4=
EXTT5=
EXTT6=
EXTT7=
EXTT8=
EXTT9=
EXTT10=
PLAYORDER=
